<?xml version="1.0" standalone="no"?>
<!DOCTYPE svg PUBLIC "-//W3C//DTD SVG 20010904//EN"
 "http://www.w3.org/TR/2001/REC-SVG-20010904/DTD/svg10.dtd">
<svg version="1.0" xmlns="http://www.w3.org/2000/svg"
 width="1024.000000pt" height="1024.000000pt" viewBox="0 0 1024.000000 1024.000000"
 preserveAspectRatio="xMidYMid meet">
<metadata>
Created by potrace 1.14, written by Peter Selinger 2001-2017
</metadata>
<g transform="translate(0.000000,1024.000000) scale(0.100000,-0.100000)"
fill="#000000" stroke="none">
<path d="M979 10236 c-2 -2 -22 -6 -44 -9 -352 -48 -680 -295 -833 -625 -39
-85 -79 -218 -90 -295 -4 -29 -7 -1922 -7 -4207 0 -3943 1 -4159 18 -4225 9
-38 20 -80 22 -92 13 -56 84 -205 138 -287 148 -226 379 -390 657 -465 l95
-26 4160 -2 c4049 -2 4162 -1 4250 17 230 49 405 141 560 295 89 88 109 113
167 203 57 90 101 194 137 321 l26 96 0 4160 c0 2288 -3 4183 -7 4210 -64 438
-426 823 -853 909 -16 4 -41 10 -55 14 -25 7 -8333 15 -8341 8z"/>
</g>
</svg>
